<svg xmlns="http://www.w3.org/2000/svg" width="42" height="48" viewBox="0 0 42 48">
    <g fill="none" fill-rule="evenodd" transform="translate(-989 -612)">
        <circle cx="1004" cy="638" r="38" stroke="#979797"/>
        <g fill="#8F8F8F" fill-rule="nonzero">
            <path d="M1001.115 654.4c0 .882.725 1.6 1.616 1.6a1.61 1.61 0 0 0 1.615-1.6c0-.882-.724-1.6-1.615-1.6a1.61 1.61 0 0 0-1.616 1.6z"/>
            <path d="M1016.462 615.525c0-1.943-1.596-3.525-3.558-3.525h-20.346c-1.962 0-3.558 1.582-3.558 3.525v40.951c0 1.942 1.596 3.524 3.558 3.524h20.346c1.962 0 3.558-1.582 3.558-3.524V638.4H1031v-16.8h-14.538v-6.075zm-11.308-1.125h.808c.445 0 .807.358.807.8 0 .442-.362.8-.807.8h-.808a.804.804 0 0 1-.808-.8c0-.442.362-.8.808-.8zm-5.654 0h3.23c.447 0 .808.358.808.8 0 .442-.361.8-.807.8H999.5a.804.804 0 0 1-.808-.8c0-.442.362-.8.808-.8zm3.23 43.2c-1.781 0-3.23-1.435-3.23-3.2 0-1.765 1.449-3.2 3.23-3.2 1.783 0 3.232 1.435 3.232 3.2 0 1.765-1.45 3.2-3.231 3.2zm12.116-8.8h-24.23v-30.4h24.23v3.2h-14.538v16.8h3.23v5.6l7.54-5.6h3.768v10.4z"/>
        </g>
    </g>
</svg>
