<svg xmlns="http://www.w3.org/2000/svg" width="44" height="45" viewBox="0 0 44 45">
    <g fill="none" fill-rule="evenodd" transform="translate(-157 -617)">
        <circle cx="180" cy="638" r="38" stroke="#979797"/>
        <g fill="#8F8F8F" fill-rule="nonzero">
            <path d="M170.268 653.615c8.796 8.888 15.556 11.118 23.524 3.067 1.248-1.293 2.414-2.928.76-4.6l-6.451-4.984c-2.036-1.107-2.83-.32-3.794.767-3.522 3.971-7.32 2.653-9.865 0l-3.795-3.834c-2.626-2.571-3.93-6.41 0-9.968 1.076-.973 1.854-1.777.76-3.833l-4.933-6.518c-1.655-1.672-3.273-.493-4.553.767-7.968 8.05-5.76 14.882 3.035 23.77l5.312 5.366zM193.492 635.626c.593 0 1.073-.486 1.073-1.085 0-.598-.48-1.084-1.073-1.084h-7.06l14.254-14.418c.419-.424.419-1.102 0-1.525a1.055 1.055 0 0 0-1.51 0l-14.27 14.401v-7.133c0-.598-.48-1.084-1.072-1.084-.593 0-1.074.486-1.074 1.084v9.76c0 .598.48 1.084 1.074 1.084h9.658z"/>
        </g>
    </g>
</svg>
