<svg xmlns="http://www.w3.org/2000/svg" width="249" height="62" viewBox="0 0 249 62">
    <g fill="none" fill-rule="evenodd">
        <path fill="#181818" d="M-75-25h1440V84H-75z"/>
        <g transform="translate(0 -7)">
            <text fill="#FFF" font-family="EkMukta-SemiBold, Ek Mukta" font-size="49" font-weight="500">
                <tspan x="73.1" y="55">hogar </tspan> <tspan x="208.683" y="55" font-family="OriyaSangamMN, Oriya Sangam MN" font-weight="normal">IO</tspan>
            </text>
            <circle cx="31" cy="38" r="31" fill="#DB1E1E"/>
            <path fill="#FFF" d="M14.382 56.182c0 1.004.815 1.818 1.82 1.818h29.05c1.16 0 2.113-.94 2.13-2.106l.226-15.584a1.846 1.846 0 0 1 1.837-1.818h1.816c2.938 0 3.648-1.709 1.606-3.797l-5.515-5.64v-9.177h-6.334v2.637l-8.464-8.966a1.745 1.745 0 0 0-2.53-.022L9.113 34.798c-2.005 2.04-1.316 3.694 1.545 3.694h3.723v17.69z"/>
            <path fill="#DB1F1F" fill-rule="nonzero" d="M24 52.481c.005-.139-.074-.298-.222-.446-2.294-2.309-3.516-5.029-3.632-8.089-.128-3.39 1.095-6.422 3.636-9.008.287-.292.278-.511-.028-.783-.339-.3-.636-.097-.783.049C20.398 36.78 19.099 39.82 19 43.5c0 .024.003.049.005.075.007.105.016.224.021.348.154 3.387 1.477 6.361 3.931 8.84.303.307.547.315.873.03a.44.44 0 0 0 .17-.312z"/>
            <path fill="#DB1F1F" fill-rule="nonzero" d="M24 53.454c.005-.146-.074-.313-.222-.47-2.294-2.43-3.516-5.293-3.632-8.514-.128-3.57 1.095-6.76 3.636-9.483.287-.307.278-.538-.028-.824-.339-.316-.636-.102-.783.051C20.398 36.927 19.099 40.126 19 44c0 .025.003.052.005.079.007.11.016.236.021.367.154 3.565 1.477 6.695 3.931 9.306.303.321.547.33.873.03a.47.47 0 0 0 .17-.328zM44 43.505c0-.022-.003-.044-.005-.068-.007-.097-.016-.211-.021-.33-.146-3.4-1.47-6.388-3.935-8.876-.102-.103-.256-.226-.428-.231-.175 0-.334.11-.438.203-.247.221-.23.479.052.766 2.46 2.495 3.681 5.434 3.63 8.734-.048 3.157-1.283 5.982-3.672 8.395-.154.158-.32.402.044.731.087.08.226.171.389.171.17 0 .304-.097.387-.183 2.59-2.576 3.897-5.62 3.997-9.312z"/>
            <path fill="#DB1F1F" fill-rule="nonzero" d="M39 43.5c-.078-2.147-1.019-3.891-2.874-5.33a.73.73 0 0 0-.454-.17.807.807 0 0 0-.482.183c-.259.195-.253.468.015.694l.177.145c.183.145.356.298.52.458 2.647 2.662 2.376 6.143-.674 8.66-.196.162-.356.412-.008.678.312.24.622.242.923.008 1.835-1.437 2.77-3.18 2.857-5.326zM28.928 48.686c.063-.091.193-.288-.202-.605-1.537-1.237-2.404-2.826-2.441-4.48-.037-1.655.758-3.266 2.24-4.538l.067-.058c.138-.117.294-.25.343-.333.14-.237-.067-.46-.309-.592a.681.681 0 0 0-.733.058C26.026 39.59 25.08 41.35 25 43.52c.085 2.166 1.039 3.912 2.914 5.335.09.065.199.112.317.137.237.044.557-.097.697-.306z"/>
            <path fill="#DB1F1F" fill-rule="nonzero" d="M33 42.945a2.011 2.011 0 0 0-.625-1.388c-.378-.365-.873-.567-1.35-.557-.564.01-1.1.245-1.49.655-.354.37-.547.867-.534 1.38.03 1.112.924 1.965 2.044 1.965h.054c1.049-.026 1.92-.967 1.9-2.055z"/>
            <circle cx="202" cy="53" r="4" fill="#FFF" opacity=".2"/>
        </g>
    </g>
</svg>
