<svg xmlns="http://www.w3.org/2000/svg" width="30" height="48" viewBox="0 0 30 48">
    <g fill="none" fill-rule="evenodd" transform="translate(-456 -613)">
        <circle cx="471" cy="638" r="38" stroke="#979797"/>
        <path fill="#8F8F8F" fill-rule="nonzero" d="M470.511 631.529a5.318 5.318 0 0 0-5.31 5.312 5.317 5.317 0 0 0 5.31 5.31 5.318 5.318 0 0 0 5.312-5.31 5.318 5.318 0 0 0-5.312-5.312zm11.993 28.947h-23.728A2.78 2.78 0 0 1 456 657.7v-28.117a2.78 2.78 0 0 1 2.776-2.776h23.728a2.78 2.78 0 0 1 2.776 2.776V657.7a2.78 2.78 0 0 1-2.776 2.776zm-19.15-36.404a1.114 1.114 0 0 1-.728-1.958c2.2-1.894 5.051-2.936 8.03-2.936 2.935 0 5.755 1.015 7.941 2.86.471.397.53 1.1.133 1.57-.396.47-1.099.53-1.569.133-1.785-1.506-4.095-2.335-6.504-2.335-2.446 0-4.781.851-6.577 2.397-.21.18-.469.27-.726.27zm-4.49-3.706a1.115 1.115 0 0 1-.836-1.85c2.955-3.359 7.676-5.364 12.63-5.364 4.95 0 9.67 2.004 12.625 5.36a1.114 1.114 0 1 1-1.672 1.472c-2.54-2.883-6.634-4.605-10.954-4.605-4.322 0-8.418 1.723-10.956 4.608-.22.25-.528.379-.838.379z"/>
    </g>
</svg>
