<svg xmlns="http://www.w3.org/2000/svg" width="48" height="38" viewBox="0 0 48 38">
    <g fill="none" fill-rule="evenodd" transform="translate(-1237 -615)">
        <circle cx="1261" cy="634" r="38" stroke="#979797"/>
        <path fill="#8F8F8F" fill-rule="nonzero" d="M1265.39 648.567c0 2.454-2.001 4.433-4.402 4.433-2.4 0-4.401-1.98-4.401-4.433 0-2.455 2-4.434 4.401-4.434 2.4 0 4.402 2.059 4.402 4.434zm19.286-23.75c-6.322-6.334-14.725-9.817-23.688-9.817s-17.366 3.483-23.688 9.817c-.4.395-.4 1.108 0 1.583l2.08 2.058c.4.475 1.121.396 1.601 0 5.122-5.145 12.244-8.312 20.087-8.312s14.885 3.167 20.087 8.312c.4.475 1.12.475 1.6 0l2.081-2.058c.24-.396.24-1.108-.16-1.583zm-7.122 7.204a23.25 23.25 0 0 0-16.566-6.888c-6.242 0-12.084 2.454-16.565 6.888-.4.396-.4 1.108 0 1.583l2.08 2.058c.4.476 1.12.396 1.6 0a18.044 18.044 0 0 1 12.885-5.383c5.042 0 9.603 2.058 12.884 5.384.4.475 1.12.475 1.601 0l2.08-2.059c.4-.475.4-1.187 0-1.583zm-16.566 3.246c-3.681 0-6.962 1.504-9.363 3.879-.4.475-.4 1.108 0 1.583l2 2.058c.4.476 1.121.396 1.601 0 1.44-1.504 3.521-2.375 5.762-2.375 2.24 0 4.242.95 5.762 2.375.4.476 1.12.476 1.6 0l2.001-2.058c.4-.475.4-1.108 0-1.583-2.4-2.375-5.682-3.88-9.363-3.88z"/>
    </g>
</svg>
